<svg xmlns="http://www.w3.org/2000/svg" version="1.1" xmlns:xlink="http://www.w3.org/1999/xlink" xmlns:svgjs="http://svgjs.dev/svgjs" width="2000" height="2000" viewBox="0 0 2000 2000"><g transform="matrix(1,0,0,1,-0.28443113772425477,-0.28443113772459583)"><svg viewBox="0 0 334 334" data-background-color="#fce44d" preserveAspectRatio="xMidYMid meet" height="2000" width="2000" xmlns="http://www.w3.org/2000/svg" xmlns:xlink="http://www.w3.org/1999/xlink"><g id="tight-bounds" transform="matrix(1,0,0,1,0.04749999999998522,0.04750000000001364)"><svg viewBox="0 0 333.90454557049503 333.90454557049503" height="333.90454557049503" width="333.90454557049503"><g><svg></svg></g><g><svg viewBox="0 0 333.90454557049503 333.90454557049503" height="333.90454557049503" width="333.90454557049503"><g><path d="M0 166.952c0-92.205 74.747-166.952 166.952-166.952 92.205 0 166.952 74.747 166.953 166.952 0 92.205-74.747 166.952-166.953 166.953-92.205 0-166.952-74.747-166.952-166.953zM166.952 316.63c82.665 0 149.677-67.013 149.678-149.678 0-82.665-67.013-149.677-149.678-149.677-82.665 0-149.677 67.013-149.677 149.677 0 82.665 67.013 149.677 149.677 149.678z" data-fill-palette-color="tertiary" fill="#000000" stroke="transparent"></path><ellipse rx="160.27418187383762" ry="160.27418187383762" cx="166.95227278524752" cy="166.95227278524752" fill="#000000" stroke="transparent" stroke-width="0" fill-opacity="1" data-fill-palette-color="tertiary"></ellipse></g><g transform="matrix(1,0,0,1,102.63614706979702,71.17305217166896)"><svg viewBox="0 0 128.632251430901 191.55844122715712" height="191.55844122715712" width="128.632251430901"><g><svg viewBox="0 0 128.63225143090102 191.55844122715715" height="191.55844122715712" width="128.632251430901"><g><svg viewBox="0 0 128.63225143090102 191.55844122715715" height="191.55844122715715" width="128.63225143090102"><g><svg viewBox="0 0 128.63225143090102 191.55844122715715" height="191.55844122715715" width="128.63225143090102"><g><svg viewBox="0 0 128.63225143090102 191.55844122715715" height="191.55844122715715" width="128.63225143090102"><g transform="matrix(1,0,0,1,0,0)"><svg width="128.63225143090102" viewBox="1.2699999809265137 -36.33000183105469 24.850000381469727 37.01000213623047" height="191.55844122715715" data-palette-color="#fce44d"><path d="M26.12-7.23L26.12-7.23Q26.12-6.25 25.95-4.88 25.78-3.52 25.29-2.27 24.8-1.03 23.97-0.17 23.14 0.68 21.78 0.68L21.78 0.68Q19.97 0.68 19.07-0.63 18.16-1.95 17.77-3.78 17.38-5.62 17.31-7.52 17.24-9.42 17.19-10.55L17.19-10.55Q13.67-9.96 10.25-9.52L10.25-9.52Q10.16-8.4 9.84-6.74 9.52-5.08 8.86-3.54 8.2-2 7.15-0.88 6.1 0.24 4.59 0.24L4.59 0.24Q3.42 0.24 2.76-0.61 2.1-1.46 1.76-2.64 1.42-3.81 1.34-5.05 1.27-6.3 1.27-7.13L1.27-7.13Q1.27-9.91 1.71-12.62 2.15-15.33 2.73-18.02L2.73-18.02Q3.03-19.43 3.52-21.34 4-23.24 4.71-25.27 5.42-27.29 6.37-29.27 7.32-31.25 8.54-32.81 9.77-34.38 11.33-35.35 12.89-36.33 14.79-36.33L14.79-36.33Q16.65-36.33 18.02-35.5 19.38-34.67 20.41-33.3 21.44-31.93 22.12-30.2 22.8-28.47 23.27-26.68 23.73-24.9 24.05-23.19 24.37-21.48 24.61-20.17L24.61-20.17Q25.24-16.99 25.68-13.75 26.12-10.5 26.12-7.23ZM16.7-17.68L16.7-19.09Q16.7-19.68 16.63-21.02 16.55-22.36 16.31-23.71 16.06-25.05 15.55-26.1 15.04-27.15 14.16-27.15L14.16-27.15Q13.67-27.15 13.23-26.49 12.79-25.83 12.45-24.83 12.11-23.83 11.84-22.61 11.57-21.39 11.38-20.26 11.18-19.14 11.08-18.24 10.99-17.33 10.94-16.94L10.94-16.94Q13.87-17.19 16.7-17.68L16.7-17.68Z" opacity="1" transform="matrix(1,0,0,1,0,0)" fill="#fce44d" class="undefined-text-0" data-fill-palette-color="quaternary" id="text-0"></path></svg></g></svg></g></svg></g></svg></g><g></g></svg></g></svg></g></svg></g><defs></defs></svg><rect width="333.90454557049503" height="333.90454557049503" fill="none" stroke="none" visibility="hidden"></rect></g></svg></g></svg>